<?xml version="1.0" encoding="utf-8"?>
<!-- Generator: Adobe Illustrator 24.0.2, SVG Export Plug-In . SVG Version: 6.00 Build 0)  -->
<svg version="1.1" id="Calque_1" xmlns="http://www.w3.org/2000/svg" xmlns:xlink="http://www.w3.org/1999/xlink" x="0px" y="0px"
	 viewBox="0 0 573 123" style="enable-background:new 0 0 573 123;" xml:space="preserve">
<style type="text/css">
	.st0{fill:url(#SVGID_1_);}
	.st1{fill:url(#SVGID_2_);}
	.st2{fill:url(#SVGID_3_);}
	.st3{fill:url(#SVGID_4_);}
	.st4{fill:url(#SVGID_5_);}
	.st5{fill:url(#SVGID_6_);}
	.st6{fill:url(#SVGID_7_);}
	.st7{fill:url(#SVGID_8_);}
	.st8{fill:#00D880;}
	.st9{fill:#379683;}
	.st10{fill:#5CDB95;}
	.st11{fill:#8EE4AF;}
</style>
<g>
	<g>
		<radialGradient id="SVGID_1_" cx="103.468" cy="61.5305" r="45.079" gradientUnits="userSpaceOnUse">
			<stop  offset="1.858442e-07" style="stop-color:#05386B"/>
			<stop  offset="0.4153" style="stop-color:#063669"/>
			<stop  offset="0.6235" style="stop-color:#093161"/>
			<stop  offset="0.7858" style="stop-color:#0F2754"/>
			<stop  offset="0.9234" style="stop-color:#181941"/>
			<stop  offset="0.9646" style="stop-color:#1B143A"/>
		</radialGradient>
		<path class="st0" d="M118.3,65.6c0.6,0,1,0.2,1.3,0.5c0.3,0.3,0.4,0.8,0.4,1.3v40.9c0,4.6-1.4,8.2-4.3,10.8c-2.9,2.6-7,4-12.2,4
			c-2.5,0-4.8-0.3-6.8-1c-2-0.7-3.7-1.7-5.2-3s-2.6-2.8-3.4-4.6s-1.2-3.9-1.2-6.1V14.7c0-4.6,1.4-8.2,4.3-10.8c2.9-2.6,7-4,12.2-4
			c2.5,0,4.7,0.3,6.8,1c2,0.7,3.8,1.7,5.2,3c1.5,1.3,2.6,2.8,3.4,4.6c0.8,1.8,1.2,3.9,1.2,6.1v42.1c0,0.5-0.1,0.9-0.4,1.3
			c-0.3,0.3-0.7,0.5-1.3,0.5h-4.8c-1.7,0-2.9-0.5-3.7-1.4c-0.8-0.9-1.2-2.2-1.2-3.7V14.7c0-1.5-0.4-2.8-1.2-3.7
			c-0.8-0.9-2.1-1.4-3.8-1.4c-1.7,0-2.9,0.5-3.7,1.4c-0.8,0.9-1.2,2.2-1.2,3.7v93.6c0,1.5,0.4,2.8,1.2,3.7c0.8,0.9,2.1,1.4,3.8,1.4
			c1.7,0,2.9-0.5,3.7-1.4c0.8-0.9,1.2-2.2,1.2-3.7V77.1c-1.5,0-2.8-0.4-3.7-1.2c-0.9-0.8-1.4-2.1-1.4-3.7v-4.8c0-0.6,0.2-1,0.5-1.3
			c0.3-0.3,0.8-0.4,1.3-0.4H118.3z"/>
		<radialGradient id="SVGID_2_" cx="152.1414" cy="61.5305" r="45.079" gradientUnits="userSpaceOnUse">
			<stop  offset="1.858442e-07" style="stop-color:#05386B"/>
			<stop  offset="0.4153" style="stop-color:#063669"/>
			<stop  offset="0.6235" style="stop-color:#093161"/>
			<stop  offset="0.7858" style="stop-color:#0F2754"/>
			<stop  offset="0.9234" style="stop-color:#181941"/>
			<stop  offset="0.9646" style="stop-color:#1B143A"/>
		</radialGradient>
		<path class="st1" d="M135.6,14.7c0-4.6,1.4-8.2,4.3-10.8c2.9-2.6,7-4,12.2-4c2.5,0,4.7,0.3,6.8,1c2,0.7,3.8,1.7,5.2,3
			c1.5,1.3,2.6,2.8,3.4,4.6c0.8,1.8,1.2,3.9,1.2,6.1v93.6c0,4.6-1.4,8.2-4.3,10.8c-2.9,2.6-7,4-12.2,4c-2.5,0-4.8-0.3-6.8-1
			c-2-0.7-3.7-1.7-5.2-3s-2.6-2.8-3.4-4.6s-1.2-3.9-1.2-6.1V14.7z M157.1,14.7c0-1.5-0.4-2.8-1.2-3.7c-0.8-0.9-2.1-1.4-3.8-1.4
			c-1.7,0-2.9,0.5-3.7,1.4c-0.8,0.9-1.2,2.2-1.2,3.7v93.6c0,1.5,0.4,2.8,1.2,3.7c0.8,0.9,2.1,1.4,3.8,1.4c1.7,0,2.9-0.5,3.7-1.4
			c0.8-0.9,1.2-2.2,1.2-3.7V14.7z"/>
		<radialGradient id="SVGID_3_" cx="200.8152" cy="61.5305" r="45.079" gradientUnits="userSpaceOnUse">
			<stop  offset="1.858442e-07" style="stop-color:#05386B"/>
			<stop  offset="0.4153" style="stop-color:#063669"/>
			<stop  offset="0.6235" style="stop-color:#093161"/>
			<stop  offset="0.7858" style="stop-color:#0F2754"/>
			<stop  offset="0.9234" style="stop-color:#181941"/>
			<stop  offset="0.9646" style="stop-color:#1B143A"/>
		</radialGradient>
		<path class="st2" d="M184.3,14.7c0-4.6,1.4-8.2,4.3-10.8c2.9-2.6,7-4,12.2-4c2.5,0,4.7,0.3,6.8,1c2,0.7,3.8,1.7,5.2,3
			c1.5,1.3,2.6,2.8,3.4,4.6c0.8,1.8,1.2,3.9,1.2,6.1v93.6c0,4.6-1.4,8.2-4.3,10.8c-2.9,2.6-7,4-12.2,4c-2.5,0-4.8-0.3-6.8-1
			c-2-0.7-3.7-1.7-5.2-3s-2.6-2.8-3.4-4.6s-1.2-3.9-1.2-6.1V14.7z M205.8,14.7c0-1.5-0.4-2.8-1.2-3.7c-0.8-0.9-2.1-1.4-3.8-1.4
			c-1.7,0-2.9,0.5-3.7,1.4c-0.8,0.9-1.2,2.2-1.2,3.7v93.6c0,1.5,0.4,2.8,1.2,3.7c0.8,0.9,2.1,1.4,3.8,1.4c1.7,0,2.9-0.5,3.7-1.4
			c0.8-0.9,1.2-2.2,1.2-3.7V14.7z"/>
		<radialGradient id="SVGID_4_" cx="249.4885" cy="61.5305" r="44.14" gradientUnits="userSpaceOnUse">
			<stop  offset="1.858442e-07" style="stop-color:#05386B"/>
			<stop  offset="0.4153" style="stop-color:#063669"/>
			<stop  offset="0.6235" style="stop-color:#093161"/>
			<stop  offset="0.7858" style="stop-color:#0F2754"/>
			<stop  offset="0.9234" style="stop-color:#181941"/>
			<stop  offset="0.9646" style="stop-color:#1B143A"/>
		</radialGradient>
		<path class="st3" d="M249.5,1.3c5,0,9.1,1.3,12,4c3,2.7,4.5,6.3,4.5,10.8v90.8c0,4.6-1.4,8.2-4.3,10.8c-2.9,2.6-7,4-12.2,4h-14.8
			c-0.6,0-1-0.2-1.3-0.5c-0.3-0.3-0.4-0.8-0.4-1.3V3.1c0-0.5,0.1-0.9,0.4-1.3c0.3-0.3,0.7-0.5,1.3-0.5H249.5z M254.5,16.1
			c0-1.5-0.4-2.7-1.2-3.7c-0.8-1-2.1-1.5-3.8-1.5h-5v101.1h5c1.7,0,3-0.5,3.8-1.5c0.8-1,1.2-2.2,1.2-3.7V16.1z"/>
		<radialGradient id="SVGID_5_" cx="305.5149" cy="61.5305" r="45.7907" gradientUnits="userSpaceOnUse">
			<stop  offset="1.858442e-07" style="stop-color:#05386B"/>
			<stop  offset="0.4153" style="stop-color:#063669"/>
			<stop  offset="0.6235" style="stop-color:#093161"/>
			<stop  offset="0.7858" style="stop-color:#0F2754"/>
			<stop  offset="0.9234" style="stop-color:#181941"/>
			<stop  offset="0.9646" style="stop-color:#1B143A"/>
		</radialGradient>
		<path class="st4" d="M313.1,18.9c0.4-4,0.9-7.1,1.5-9.4c0.6-2.3,1.2-4.1,1.9-5.3c0.7-1.2,1.4-2,2.2-2.3c0.8-0.3,1.6-0.5,2.4-0.5
			h6.5c0.6,0,1,0.2,1.3,0.5c0.3,0.3,0.4,0.8,0.4,1.3v116.8c0,0.5-0.1,0.9-0.4,1.3c-0.3,0.3-0.7,0.5-1.3,0.5h-4.8
			c-1.7,0-2.9-0.5-3.8-1.4c-0.9-0.9-1.3-2.2-1.2-3.7l2.6-84.3l-8.9,85.1c-0.1,1.2-0.8,2.2-2,3.1c-1.2,0.8-2.5,1.2-4,1.2h-0.2
			c-1.4,0-2.8-0.4-4-1.2c-1.2-0.8-1.9-1.8-2-3.1l-8.9-85.2l2.6,84.5c0.1,1.5-0.3,2.7-1.2,3.7c-0.9,0.9-2.1,1.4-3.8,1.4h-4.8
			c-0.6,0-1-0.2-1.3-0.5c-0.3-0.3-0.4-0.8-0.4-1.3V3.1c0-0.5,0.1-0.9,0.4-1.3c0.3-0.3,0.7-0.5,1.3-0.5h5.8c0.8,0,1.6,0.2,2.5,0.5
			c0.9,0.3,1.7,1.1,2.5,2.3c0.8,1.2,1.5,3,2.2,5.3c0.7,2.3,1.2,5.5,1.6,9.5l7.5,72.8L313.1,18.9z"/>
		<radialGradient id="SVGID_6_" cx="363.2617" cy="61.5305" r="45.079" gradientUnits="userSpaceOnUse">
			<stop  offset="1.858442e-07" style="stop-color:#05386B"/>
			<stop  offset="0.4153" style="stop-color:#063669"/>
			<stop  offset="0.6235" style="stop-color:#093161"/>
			<stop  offset="0.7858" style="stop-color:#0F2754"/>
			<stop  offset="0.9234" style="stop-color:#181941"/>
			<stop  offset="0.9646" style="stop-color:#1B143A"/>
		</radialGradient>
		<path class="st5" d="M346.8,14.7c0-4.6,1.4-8.2,4.3-10.8c2.9-2.6,7-4,12.2-4c2.5,0,4.7,0.3,6.8,1c2,0.7,3.8,1.7,5.2,3
			s2.6,2.8,3.4,4.6c0.8,1.8,1.2,3.9,1.2,6.1v93.6c0,4.6-1.4,8.2-4.3,10.8c-2.9,2.6-7,4-12.2,4c-2.5,0-4.8-0.3-6.8-1
			c-2-0.7-3.7-1.7-5.2-3c-1.5-1.3-2.6-2.8-3.4-4.6s-1.2-3.9-1.2-6.1V14.7z M368.3,14.7c0-1.5-0.4-2.8-1.2-3.7
			c-0.8-0.9-2.1-1.4-3.8-1.4c-1.7,0-2.9,0.5-3.7,1.4c-0.8,0.9-1.2,2.2-1.2,3.7v93.6c0,1.5,0.4,2.8,1.2,3.7c0.8,0.9,2.1,1.4,3.8,1.4
			c1.7,0,2.9-0.5,3.7-1.4c0.8-0.9,1.2-2.2,1.2-3.7V14.7z"/>
		<radialGradient id="SVGID_7_" cx="411.9355" cy="61.5305" r="45.079" gradientUnits="userSpaceOnUse">
			<stop  offset="1.858442e-07" style="stop-color:#05386B"/>
			<stop  offset="0.4153" style="stop-color:#063669"/>
			<stop  offset="0.6235" style="stop-color:#093161"/>
			<stop  offset="0.7858" style="stop-color:#0F2754"/>
			<stop  offset="0.9234" style="stop-color:#181941"/>
			<stop  offset="0.9646" style="stop-color:#1B143A"/>
		</radialGradient>
		<path class="st6" d="M395.4,14.7c0-4.6,1.4-8.2,4.3-10.8c2.9-2.6,7-4,12.2-4c2.5,0,4.7,0.3,6.8,1c2,0.7,3.8,1.7,5.2,3
			s2.6,2.8,3.4,4.6c0.8,1.8,1.2,3.9,1.2,6.1v93.6c0,4.6-1.4,8.2-4.3,10.8c-2.9,2.6-7,4-12.2,4c-2.5,0-4.8-0.3-6.8-1
			c-2-0.7-3.7-1.7-5.2-3c-1.5-1.3-2.6-2.8-3.4-4.6s-1.2-3.9-1.2-6.1V14.7z M416.9,14.7c0-1.5-0.4-2.8-1.2-3.7
			c-0.8-0.9-2.1-1.4-3.8-1.4c-1.7,0-2.9,0.5-3.7,1.4c-0.8,0.9-1.2,2.2-1.2,3.7v93.6c0,1.5,0.4,2.8,1.2,3.7c0.8,0.9,2.1,1.4,3.8,1.4
			c1.7,0,2.9-0.5,3.7-1.4c0.8-0.9,1.2-2.2,1.2-3.7V14.7z"/>
		<radialGradient id="SVGID_8_" cx="460.6094" cy="61.5305" r="44.14" gradientUnits="userSpaceOnUse">
			<stop  offset="1.858442e-07" style="stop-color:#05386B"/>
			<stop  offset="0.4153" style="stop-color:#063669"/>
			<stop  offset="0.6235" style="stop-color:#093161"/>
			<stop  offset="0.7858" style="stop-color:#0F2754"/>
			<stop  offset="0.9234" style="stop-color:#181941"/>
			<stop  offset="0.9646" style="stop-color:#1B143A"/>
		</radialGradient>
		<path class="st7" d="M460.6,1.3c5,0,9.1,1.3,12,4s4.5,6.3,4.5,10.8v90.8c0,4.6-1.4,8.2-4.3,10.8c-2.9,2.6-7,4-12.2,4h-14.8
			c-0.6,0-1-0.2-1.3-0.5c-0.3-0.3-0.4-0.8-0.4-1.3V3.1c0-0.5,0.1-0.9,0.4-1.3c0.3-0.3,0.7-0.5,1.3-0.5H460.6z M465.6,16.1
			c0-1.5-0.4-2.7-1.2-3.7c-0.8-1-2-1.5-3.8-1.5h-5v101.1h5c1.7,0,3-0.5,3.8-1.5c0.8-1,1.2-2.2,1.2-3.7V16.1z"/>
	</g>
</g>
<path class="st8" d="M7.3,49.4c-1.7,0-3.1,1.4-3.1,3.1v15.6c0,1.7,1.4,3.1,3.1,3.1c1.7,0,3.1-1.4,3.1-3.1V52.6
	C10.5,50.8,9.1,49.4,7.3,49.4z"/>
<path class="st9" d="M22.9,36.7c-1.7,0-3.1,1.4-3.1,3.1v43.1c0,1.7,1.4,3.1,3.1,3.1c1.7,0,3.1-1.4,3.1-3.1V39.8
	C26,38.1,24.6,36.7,22.9,36.7z"/>
<path class="st10" d="M38.5,15.2c-1.7,0-3.1,1.4-3.1,3.1v87.1c0,1.7,1.4,3.1,3.1,3.1s3.1-1.4,3.1-3.1V18.3
	C41.6,16.6,40.2,15.2,38.5,15.2z"/>
<path class="st11" d="M54,30.8c-1.7,0-3.1,1.4-3.1,3.1v52.9c0,1.7,1.4,3.1,3.1,3.1c1.7,0,3.1-1.4,3.1-3.1V33.9
	C57.1,32.2,55.7,30.8,54,30.8z"/>
<path class="st11" d="M508,23.2c-1.7,0-3.1,1.4-3.1,3.1v70c0,1.7,1.4,3.1,3.1,3.1c1.7,0,3.1-1.4,3.1-3.1v-70
	C511.1,24.6,509.7,23.2,508,23.2z"/>
<path class="st9" d="M538.8,27.7c-1.7,0-3.1,1.4-3.1,3.1V93c0,1.7,1.4,3.1,3.1,3.1c1.7,0,3.1-1.4,3.1-3.1V30.8
	C541.9,29.1,540.5,27.7,538.8,27.7z"/>
<path class="st8" d="M554.4,43.2c-1.7,0-3.1,1.4-3.1,3.1v31.1c0,1.7,1.4,3.1,3.1,3.1c1.7,0,3.1-1.4,3.1-3.1V46.3
	C557.5,44.6,556.1,43.2,554.4,43.2z"/>
<path class="st10" d="M523.2,2.8c-1.7,0-3.1,1.4-3.1,3.1v112c0,1.7,1.4,3.1,3.1,3.1c1.7,0,3.1-1.4,3.1-3.1V5.9
	C526.3,4.2,525,2.8,523.2,2.8z"/>
<path class="st9" d="M69.6,52.6c-1.7,0-3.1,1.4-3.1,3.1v12.4c0,1.7,1.4,3.1,3.1,3.1c1.7,0,3.1-1.4,3.1-3.1V55.7
	C72.7,53.9,71.3,52.6,69.6,52.6z"/>
<path class="st8" d="M569.9,51.5c-1.7,0-3.1,1.4-3.1,3.1v13.5c0,1.7,1.4,3.1,3.1,3.1c1.7,0,3.1-1.4,3.1-3.1V54.6
	C573,52.9,571.6,51.5,569.9,51.5z"/>
<path class="st9" d="M491.8,45.6c-1.7,0-3.1,1.4-3.1,3.1V74c0,1.7,1.4,3.1,3.1,3.1c1.7,0,3.1-1.4,3.1-3.1V48.7
	C494.9,47,493.6,45.6,491.8,45.6z"/>
</svg>
